<svg xmlns="http://www.w3.org/2000/svg" xmlns:xlink="http://www.w3.org/1999/xlink" width="2000" zoomAndPan="magnify" viewBox="0 0 1500 599.999999" height="800" preserveAspectRatio="xMidYMid meet" version="1.0"><defs><clipPath id="348f693c17"><path d="M 556.453125 148 L 936 148 L 936 364 L 556.453125 364 Z M 556.453125 148 " clip-rule="nonzero"/></clipPath></defs><path fill="#3871c1" d="M 632.683594 394.289062 C 632.671875 394.289062 632.671875 394.289062 632.683594 394.289062 C 618.335938 394.289062 604.851562 393.496094 592.488281 391.941406 L 592.488281 543.882812 L 911.265625 543.882812 L 911.265625 318.878906 C 873 342.160156 822.4375 362.324219 767.226562 376.199219 C 720.121094 388.03125 673.585938 394.289062 632.683594 394.289062 Z M 632.683594 394.289062 " fill-opacity="1" fill-rule="nonzero"/><g clip-path="url(#348f693c17)"><path fill="#f68712" d="M 934.3125 234.300781 C 933.53125 231.195312 932.160156 228.289062 930.257812 225.589844 C 928.585938 236.074219 921.152344 247.304688 909.101562 258.53125 L 899.359375 148.691406 L 830.652344 148.691406 C 831.136719 150.871094 831.578125 152.996094 831.984375 155.042969 C 840.550781 159.019531 846.355469 167.679688 846.355469 177.617188 C 846.355469 191.351562 835.191406 202.515625 821.457031 202.515625 C 807.722656 202.515625 796.558594 191.339844 796.558594 177.617188 C 796.558594 170.8125 799.363281 164.421875 804.085938 159.804688 C 803.328125 156.097656 802.496094 152.382812 801.59375 148.691406 L 703.828125 148.691406 C 702.929688 152.382812 702.109375 156.085938 701.339844 159.789062 C 706.058594 164.40625 708.863281 170.796875 708.863281 177.605469 C 708.863281 191.339844 697.6875 202.503906 683.964844 202.503906 C 670.234375 202.503906 659.070312 191.328125 659.070312 177.605469 C 659.070312 167.679688 664.871094 159.007812 673.441406 155.03125 C 673.84375 152.980469 674.300781 150.855469 674.773438 148.679688 L 602.242188 148.679688 L 592.34375 338.339844 C 575.652344 333.996094 563.378906 327.265625 557.066406 318.320312 C 556.476562 321.984375 556.597656 325.542969 557.457031 328.988281 C 566.742188 365.921875 658.625 374.660156 762.6875 348.511719 C 866.765625 322.375 943.597656 271.234375 934.3125 234.300781 Z M 934.3125 234.300781 " fill-opacity="1" fill-rule="nonzero"/></g><path fill="#6d6e71" d="M 823.089844 163.078125 C 817.285156 131.03125 798.75 56.039062 752.738281 56.039062 C 706.710938 56.039062 688.191406 131.03125 682.375 163.078125 C 675.046875 163.886719 669.347656 170.082031 669.347656 177.617188 C 669.347656 185.707031 675.90625 192.265625 683.980469 192.265625 C 692.066406 192.265625 698.625 185.707031 698.625 177.617188 C 698.625 171.683594 695.089844 166.597656 690.03125 164.289062 C 695.664062 133.886719 712.960938 63.734375 752.738281 63.734375 C 792.492188 63.734375 809.796875 133.886719 815.433594 164.304688 C 810.371094 166.609375 806.835938 171.699219 806.835938 177.617188 C 806.835938 185.707031 813.398438 192.265625 821.472656 192.265625 C 829.558594 192.265625 836.117188 185.707031 836.117188 177.617188 C 836.117188 170.082031 830.417969 163.886719 823.089844 163.078125 Z M 823.089844 163.078125 " fill-opacity="1" fill-rule="nonzero"/></svg>