<svg xmlns="http://www.w3.org/2000/svg" xmlns:xlink="http://www.w3.org/1999/xlink" width="2000" zoomAndPan="magnify" viewBox="0 0 1500 599.999999" height="800" preserveAspectRatio="xMidYMid meet" version="1.0"><defs><g/><clipPath id="5fcc79a46b"><rect x="0" width="998" y="0" height="230"/></clipPath><clipPath id="ea4369de26"><path d="M 80 312 L 297 312 L 297 465.863281 L 80 465.863281 Z M 80 312 " clip-rule="nonzero"/></clipPath><clipPath id="7aa2aa845d"><path d="M 55.722656 197 L 313 197 L 313 344 L 55.722656 344 Z M 55.722656 197 " clip-rule="nonzero"/></clipPath><clipPath id="aed33cf92e"><path d="M 132 134.363281 L 246 134.363281 L 246 227 L 132 227 Z M 132 134.363281 " clip-rule="nonzero"/></clipPath></defs><g transform="matrix(1, 0, 0, 1, 322, 201)"><g clip-path="url(#5fcc79a46b)"><g fill="#3871c1" fill-opacity="1"><g transform="translate(0.612372, 180.791554)"><g><path d="M 15.84375 -19.71875 L 15.84375 -97.28125 L 6.234375 -97.78125 L 6.234375 -112.109375 L 46.703125 -112.109375 L 46.703125 -98.453125 L 41.140625 -97.953125 C 37.878906 -97.617188 36.25 -95.820312 36.25 -92.5625 L 36.25 -55.46875 L 70.640625 -97.28125 L 61.203125 -97.78125 L 61.203125 -112.109375 L 100.65625 -112.109375 L 100.65625 -98.453125 L 95.09375 -97.953125 C 92.957031 -97.722656 90.707031 -96.148438 88.34375 -93.234375 L 64.40625 -63.890625 L 94.25 -14.84375 L 103.171875 -14.328125 L 103.171875 0 L 60.015625 0 L 60.015625 -13.65625 L 65.25 -14.15625 C 67.5 -14.382812 68.625 -15.285156 68.625 -16.859375 C 68.625 -17.535156 68.34375 -18.4375 67.78125 -19.5625 L 51.078125 -48.390625 L 36.25 -30.515625 L 36.25 -14.84375 L 45.859375 -14.328125 L 45.859375 0 L 5.390625 0 L 5.390625 -13.65625 L 10.953125 -14.15625 C 12.640625 -14.382812 13.875 -14.863281 14.65625 -15.59375 C 15.445312 -16.320312 15.84375 -17.695312 15.84375 -19.71875 Z M 15.84375 -19.71875 "/></g></g></g><g fill="#3871c1" fill-opacity="1"><g transform="translate(105.470643, 180.791554)"><g><path d="M 36.078125 -84.796875 L 36.078125 -14 L 45.6875 -13.484375 L 45.6875 0 L 5.5625 0 L 5.5625 -12.8125 L 11.125 -13.3125 C 14.382812 -13.65625 16.015625 -15.457031 16.015625 -18.71875 L 16.015625 -65.578125 C 16.015625 -67.492188 15.703125 -68.785156 15.078125 -69.453125 C 14.460938 -70.128906 13.367188 -70.46875 11.796875 -70.46875 L 5.90625 -70.8125 L 5.90625 -84.796875 Z M 14.828125 -99.390625 C 12.472656 -101.691406 11.296875 -104.640625 11.296875 -108.234375 C 11.296875 -111.828125 12.472656 -114.832031 14.828125 -117.25 C 17.191406 -119.664062 20.285156 -120.875 24.109375 -120.875 C 27.929688 -120.875 31.050781 -119.664062 33.46875 -117.25 C 35.882812 -114.832031 37.09375 -111.828125 37.09375 -108.234375 C 37.09375 -104.640625 35.882812 -101.691406 33.46875 -99.390625 C 31.050781 -97.085938 27.929688 -95.9375 24.109375 -95.9375 C 20.285156 -95.9375 17.191406 -97.085938 14.828125 -99.390625 Z M 14.828125 -99.390625 "/></g></g></g><g fill="#3871c1" fill-opacity="1"><g transform="translate(155.371046, 180.791554)"><g><path d="M 16.015625 -18.875 L 16.015625 -65.578125 C 16.015625 -67.378906 15.703125 -68.644531 15.078125 -69.375 C 14.460938 -70.101562 13.367188 -70.523438 11.796875 -70.640625 L 4.71875 -71.140625 L 4.71875 -84.796875 L 33.21875 -84.796875 L 33.21875 -72.15625 C 35.238281 -76.539062 38.382812 -80.164062 42.65625 -83.03125 C 46.925781 -85.894531 51.84375 -87.328125 57.40625 -87.328125 C 62.96875 -87.328125 68.28125 -86.09375 73.34375 -83.625 L 73.34375 -58.5 L 57.65625 -57.328125 L 57.65625 -65.078125 C 57.65625 -67.328125 57.09375 -68.734375 55.96875 -69.296875 C 54.738281 -69.859375 53.222656 -70.140625 51.421875 -70.140625 C 46.921875 -70.140625 43.238281 -68.535156 40.375 -65.328125 C 37.507812 -62.128906 36.078125 -58.054688 36.078125 -53.109375 L 36.078125 -14 L 50.75 -13.3125 L 50.75 0 L 5.5625 0 L 5.5625 -12.8125 L 11.125 -13.3125 C 12.8125 -13.539062 14.046875 -14.019531 14.828125 -14.75 C 15.617188 -15.476562 16.015625 -16.851562 16.015625 -18.875 Z M 16.015625 -18.875 "/></g></g></g><g fill="#3871c1" fill-opacity="1"><g transform="translate(233.256122, 180.791554)"><g><path d="M 81.265625 -81.4375 L 81.265625 -18.71875 C 81.265625 -16.914062 81.570312 -15.675781 82.1875 -15 C 82.800781 -14.332031 83.898438 -13.941406 85.484375 -13.828125 L 90.875 -13.484375 L 90.875 0 L 64.0625 0 L 64.0625 -9.78125 L 63.5625 -9.953125 C 57.9375 -1.859375 50.238281 2.1875 40.46875 2.1875 C 29 2.1875 20.507812 -1.460938 15 -8.765625 C 9.5 -16.066406 6.75 -26.070312 6.75 -38.78125 C 6.75 -54.0625 10.457031 -65.972656 17.875 -74.515625 C 25.289062 -83.054688 36.414062 -87.328125 51.25 -87.328125 C 60.800781 -87.328125 70.804688 -85.363281 81.265625 -81.4375 Z M 61.703125 -26.8125 L 61.703125 -70.46875 C 58.554688 -71.925781 54.226562 -72.65625 48.71875 -72.65625 C 41.1875 -72.65625 35.734375 -69.617188 32.359375 -63.546875 C 28.992188 -57.484375 27.3125 -49.453125 27.3125 -39.453125 C 27.3125 -21.242188 33.15625 -12.140625 44.84375 -12.140625 C 49.789062 -12.140625 53.835938 -13.628906 56.984375 -16.609375 C 60.128906 -19.585938 61.703125 -22.988281 61.703125 -26.8125 Z M 61.703125 -26.8125 "/></g></g></g><g fill="#3871c1" fill-opacity="1"><g transform="translate(328.84235, 180.791554)"><g><path d="M 4.546875 -71.3125 L 4.546875 -84.796875 L 33.046875 -84.796875 L 33.046875 -73.84375 C 35.960938 -78 39.835938 -81.285156 44.671875 -83.703125 C 49.503906 -86.117188 54.734375 -87.328125 60.359375 -87.328125 C 68.898438 -87.328125 75.5 -84.878906 80.15625 -79.984375 C 84.820312 -75.097656 87.15625 -67.769531 87.15625 -58 L 87.15625 -14 L 96.765625 -13.484375 L 96.765625 0 L 56.640625 0 L 56.640625 -12.8125 L 62.21875 -13.3125 C 63.894531 -13.539062 65.125 -14.019531 65.90625 -14.75 C 66.695312 -15.476562 67.09375 -16.851562 67.09375 -18.875 L 67.09375 -53.609375 C 67.09375 -59.796875 66.140625 -64.378906 64.234375 -67.359375 C 62.328125 -70.335938 58.703125 -71.828125 53.359375 -71.828125 C 48.023438 -71.828125 43.78125 -70.140625 40.625 -66.765625 C 37.476562 -63.390625 35.90625 -59.398438 35.90625 -54.796875 L 35.90625 -14 L 45.515625 -13.484375 L 45.515625 0 L 5.390625 0 L 5.390625 -12.8125 L 10.953125 -13.3125 C 12.640625 -13.539062 13.875 -14.019531 14.65625 -14.75 C 15.445312 -15.476562 15.84375 -16.851562 15.84375 -18.875 L 15.84375 -65.578125 C 15.84375 -68.953125 14.441406 -70.695312 11.640625 -70.8125 Z M 4.546875 -71.3125 "/></g></g></g><g fill="#3871c1" fill-opacity="1"><g transform="translate(429.991784, 180.791554)"><g><path d="M 81.265625 -81.4375 L 81.265625 -18.71875 C 81.265625 -16.914062 81.570312 -15.675781 82.1875 -15 C 82.800781 -14.332031 83.898438 -13.941406 85.484375 -13.828125 L 90.875 -13.484375 L 90.875 0 L 64.0625 0 L 64.0625 -9.78125 L 63.5625 -9.953125 C 57.9375 -1.859375 50.238281 2.1875 40.46875 2.1875 C 29 2.1875 20.507812 -1.460938 15 -8.765625 C 9.5 -16.066406 6.75 -26.070312 6.75 -38.78125 C 6.75 -54.0625 10.457031 -65.972656 17.875 -74.515625 C 25.289062 -83.054688 36.414062 -87.328125 51.25 -87.328125 C 60.800781 -87.328125 70.804688 -85.363281 81.265625 -81.4375 Z M 61.703125 -26.8125 L 61.703125 -70.46875 C 58.554688 -71.925781 54.226562 -72.65625 48.71875 -72.65625 C 41.1875 -72.65625 35.734375 -69.617188 32.359375 -63.546875 C 28.992188 -57.484375 27.3125 -49.453125 27.3125 -39.453125 C 27.3125 -21.242188 33.15625 -12.140625 44.84375 -12.140625 C 49.789062 -12.140625 53.835938 -13.628906 56.984375 -16.609375 C 60.128906 -19.585938 61.703125 -22.988281 61.703125 -26.8125 Z M 61.703125 -26.8125 "/></g></g></g><g fill="#f68712" fill-opacity="1"><g transform="translate(525.58643, 180.791554)"><g><path d="M 40.625 -15.171875 C 54.113281 -15.171875 60.859375 -20.566406 60.859375 -31.359375 C 60.859375 -36.972656 57.878906 -41.128906 51.921875 -43.828125 C 48.773438 -45.398438 44.703125 -46.859375 39.703125 -48.203125 C 34.703125 -49.554688 30.539062 -50.9375 27.21875 -52.34375 C 23.90625 -53.75 20.566406 -55.691406 17.203125 -58.171875 C 10.566406 -63.109375 7.25 -70.71875 7.25 -81 C 7.25 -91.289062 10.816406 -99.382812 17.953125 -105.28125 C 25.085938 -111.1875 34.414062 -114.140625 45.9375 -114.140625 C 57.457031 -114.140625 68.164062 -111.832031 78.0625 -107.21875 L 78.0625 -81.9375 L 60.859375 -80.75 L 60.859375 -90.53125 C 60.859375 -92.21875 60.632812 -93.457031 60.1875 -94.25 C 58.945312 -96.382812 54.984375 -97.453125 48.296875 -97.453125 C 41.609375 -97.453125 36.660156 -96.269531 33.453125 -93.90625 C 30.253906 -91.539062 28.65625 -87.890625 28.65625 -82.953125 C 28.65625 -79.347656 30.003906 -76.195312 32.703125 -73.5 C 34.503906 -71.707031 37.175781 -70.21875 40.71875 -69.03125 C 44.257812 -67.851562 48.023438 -66.644531 52.015625 -65.40625 C 56.003906 -64.175781 59.539062 -62.828125 62.625 -61.359375 C 65.71875 -59.898438 68.953125 -57.878906 72.328125 -55.296875 C 79.179688 -50.242188 82.609375 -42.429688 82.609375 -31.859375 C 82.609375 -21.296875 78.8125 -12.976562 71.21875 -6.90625 C 63.632812 -0.84375 53.632812 2.1875 41.21875 2.1875 C 28.800781 2.1875 17.644531 -0.113281 7.75 -4.71875 L 7.75 -31.359375 L 24.953125 -32.53125 L 24.953125 -22.25 C 24.953125 -20.5625 25.175781 -19.320312 25.625 -18.53125 C 26.070312 -17.75 27.445312 -16.992188 29.75 -16.265625 C 32.0625 -15.535156 35.6875 -15.171875 40.625 -15.171875 Z M 40.625 -15.171875 "/></g></g></g><g fill="#f68712" fill-opacity="1"><g transform="translate(613.586452, 180.791554)"><g><path d="M 4.546875 -71.140625 L 4.546875 -84.796875 L 33.046875 -84.796875 L 33.046875 -73.84375 C 39.335938 -82.832031 47.960938 -87.328125 58.921875 -87.328125 C 69.878906 -87.328125 77.269531 -82.832031 81.09375 -73.84375 C 87.382812 -82.832031 95.925781 -87.328125 106.71875 -87.328125 C 114.8125 -87.328125 121.050781 -84.878906 125.4375 -79.984375 C 129.820312 -75.097656 132.015625 -67.769531 132.015625 -58 L 132.015625 -14 L 141.625 -13.484375 L 141.625 0 L 101.5 0 L 101.5 -12.8125 L 107.0625 -13.3125 C 108.738281 -13.539062 109.941406 -14.019531 110.671875 -14.75 C 111.410156 -15.476562 111.835938 -16.800781 111.953125 -18.71875 L 111.953125 -53.609375 C 111.953125 -59.796875 111.25 -64.378906 109.84375 -67.359375 C 108.4375 -70.335938 105.144531 -71.828125 99.96875 -71.828125 C 94.800781 -71.828125 90.835938 -70.25 88.078125 -67.09375 C 85.328125 -63.945312 83.953125 -59.734375 83.953125 -54.453125 L 83.953125 -14 L 93.234375 -13.484375 L 93.234375 0 L 53.4375 0 L 53.4375 -12.8125 L 59 -13.3125 C 60.6875 -13.539062 61.921875 -14.019531 62.703125 -14.75 C 63.492188 -15.476562 63.890625 -16.851562 63.890625 -18.875 L 63.890625 -53.609375 C 63.890625 -59.796875 63.1875 -64.378906 61.78125 -67.359375 C 60.382812 -70.335938 57.070312 -71.828125 51.84375 -71.828125 C 46.613281 -71.828125 42.648438 -70.195312 39.953125 -66.9375 C 37.253906 -63.675781 35.90625 -59.628906 35.90625 -54.796875 L 35.90625 -14 L 45.015625 -13.484375 L 45.015625 0 L 5.21875 0 L 5.21875 -12.8125 L 10.796875 -13.3125 C 12.472656 -13.539062 13.703125 -14.019531 14.484375 -14.75 C 15.273438 -15.476562 15.671875 -16.851562 15.671875 -18.875 L 15.84375 -18.875 L 15.84375 -65.421875 C 15.84375 -67.328125 15.535156 -68.644531 14.921875 -69.375 C 14.304688 -70.101562 13.210938 -70.523438 11.640625 -70.640625 Z M 4.546875 -71.140625 "/></g></g></g><g fill="#f68712" fill-opacity="1"><g transform="translate(759.578837, 180.791554)"><g><path d="M 81.265625 -81.4375 L 81.265625 -18.71875 C 81.265625 -16.914062 81.570312 -15.675781 82.1875 -15 C 82.800781 -14.332031 83.898438 -13.941406 85.484375 -13.828125 L 90.875 -13.484375 L 90.875 0 L 64.0625 0 L 64.0625 -9.78125 L 63.5625 -9.953125 C 57.9375 -1.859375 50.238281 2.1875 40.46875 2.1875 C 29 2.1875 20.507812 -1.460938 15 -8.765625 C 9.5 -16.066406 6.75 -26.070312 6.75 -38.78125 C 6.75 -54.0625 10.457031 -65.972656 17.875 -74.515625 C 25.289062 -83.054688 36.414062 -87.328125 51.25 -87.328125 C 60.800781 -87.328125 70.804688 -85.363281 81.265625 -81.4375 Z M 61.703125 -26.8125 L 61.703125 -70.46875 C 58.554688 -71.925781 54.226562 -72.65625 48.71875 -72.65625 C 41.1875 -72.65625 35.734375 -69.617188 32.359375 -63.546875 C 28.992188 -57.484375 27.3125 -49.453125 27.3125 -39.453125 C 27.3125 -21.242188 33.15625 -12.140625 44.84375 -12.140625 C 49.789062 -12.140625 53.835938 -13.628906 56.984375 -16.609375 C 60.128906 -19.585938 61.703125 -22.988281 61.703125 -26.8125 Z M 61.703125 -26.8125 "/></g></g></g><g fill="#f68712" fill-opacity="1"><g transform="translate(855.165065, 180.791554)"><g><path d="M 16.015625 -18.875 L 16.015625 -65.578125 C 16.015625 -67.378906 15.703125 -68.644531 15.078125 -69.375 C 14.460938 -70.101562 13.367188 -70.523438 11.796875 -70.640625 L 4.71875 -71.140625 L 4.71875 -84.796875 L 33.21875 -84.796875 L 33.21875 -72.15625 C 35.238281 -76.539062 38.382812 -80.164062 42.65625 -83.03125 C 46.925781 -85.894531 51.84375 -87.328125 57.40625 -87.328125 C 62.96875 -87.328125 68.28125 -86.09375 73.34375 -83.625 L 73.34375 -58.5 L 57.65625 -57.328125 L 57.65625 -65.078125 C 57.65625 -67.328125 57.09375 -68.734375 55.96875 -69.296875 C 54.738281 -69.859375 53.222656 -70.140625 51.421875 -70.140625 C 46.921875 -70.140625 43.238281 -68.535156 40.375 -65.328125 C 37.507812 -62.128906 36.078125 -58.054688 36.078125 -53.109375 L 36.078125 -14 L 50.75 -13.3125 L 50.75 0 L 5.5625 0 L 5.5625 -12.8125 L 11.125 -13.3125 C 12.8125 -13.539062 14.046875 -14.019531 14.828125 -14.75 C 15.617188 -15.476562 16.015625 -16.851562 16.015625 -18.875 Z M 16.015625 -18.875 "/></g></g></g><g fill="#f68712" fill-opacity="1"><g transform="translate(933.050141, 180.791554)"><g><path d="M 24.28125 -102.671875 L 35.234375 -102.671875 L 35.234375 -84.796875 L 57.65625 -84.796875 L 55.96875 -70.640625 L 35.234375 -70.640625 L 35.234375 -26.296875 C 35.234375 -21.347656 36.128906 -17.890625 37.921875 -15.921875 C 39.722656 -13.960938 42.503906 -12.984375 46.265625 -12.984375 C 50.035156 -12.984375 53.832031 -14.160156 57.65625 -16.515625 L 62.71875 -3.546875 C 57.09375 0.390625 49.957031 2.359375 41.3125 2.359375 C 36.25 2.359375 31.972656 1.710938 28.484375 0.421875 C 25.003906 -0.867188 22.421875 -2.300781 20.734375 -3.875 C 19.046875 -5.445312 17.753906 -7.75 16.859375 -10.78125 C 15.960938 -13.820312 15.457031 -16.210938 15.34375 -17.953125 C 15.226562 -19.691406 15.171875 -22.25 15.171875 -25.625 L 15.171875 -70.640625 L 3.203125 -70.640625 L 4.890625 -82.953125 C 10.171875 -83.398438 14.160156 -85.28125 16.859375 -88.59375 C 19.554688 -91.90625 22.03125 -96.597656 24.28125 -102.671875 Z M 24.28125 -102.671875 "/></g></g></g></g></g><g clip-path="url(#ea4369de26)"><path fill="#3871c1" d="M 107.4375 363.964844 C 107.429688 363.964844 107.429688 363.964844 107.4375 363.964844 C 97.703125 363.964844 88.554688 363.425781 80.167969 362.371094 L 80.167969 465.449219 L 296.429688 465.449219 L 296.429688 312.804688 C 270.46875 328.601562 236.164062 342.277344 198.710938 351.691406 C 166.753906 359.71875 135.183594 363.964844 107.4375 363.964844 Z M 107.4375 363.964844 " fill-opacity="1" fill-rule="nonzero"/></g><g clip-path="url(#7aa2aa845d)"><path fill="#f68712" d="M 312.0625 255.429688 C 311.53125 253.320312 310.601562 251.347656 309.3125 249.515625 C 308.179688 256.632812 303.136719 264.25 294.960938 271.867188 L 288.351562 197.351562 L 241.738281 197.351562 C 242.066406 198.828125 242.367188 200.269531 242.640625 201.660156 C 248.453125 204.359375 252.390625 210.234375 252.390625 216.976562 C 252.390625 226.292969 244.820312 233.867188 235.5 233.867188 C 226.183594 233.867188 218.609375 226.28125 218.609375 216.976562 C 218.609375 212.355469 220.511719 208.019531 223.714844 204.890625 C 223.203125 202.375 222.636719 199.855469 222.027344 197.351562 L 155.703125 197.351562 C 155.09375 199.855469 154.535156 202.367188 154.011719 204.878906 C 157.214844 208.011719 159.117188 212.347656 159.117188 216.964844 C 159.117188 226.28125 151.535156 233.855469 142.226562 233.855469 C 132.910156 233.855469 125.335938 226.273438 125.335938 216.964844 C 125.335938 210.234375 129.273438 204.347656 135.085938 201.652344 C 135.359375 200.261719 135.671875 198.820312 135.988281 197.339844 L 86.785156 197.339844 L 80.070312 326.007812 C 68.746094 323.0625 60.417969 318.496094 56.136719 312.425781 C 55.738281 314.914062 55.820312 317.328125 56.402344 319.664062 C 62.703125 344.722656 125.035156 350.648438 195.632812 332.910156 C 266.238281 315.175781 318.363281 280.484375 312.0625 255.429688 Z M 312.0625 255.429688 " fill-opacity="1" fill-rule="nonzero"/></g><g clip-path="url(#aed33cf92e)"><path fill="#6d6e71" d="M 236.609375 207.109375 C 232.671875 185.371094 220.097656 134.496094 188.882812 134.496094 C 157.65625 134.496094 145.09375 185.371094 141.148438 207.109375 C 136.175781 207.65625 132.308594 211.859375 132.308594 216.976562 C 132.308594 222.460938 136.757812 226.910156 142.234375 226.910156 C 147.722656 226.910156 152.171875 222.460938 152.171875 216.976562 C 152.171875 212.949219 149.773438 209.5 146.339844 207.933594 C 150.164062 187.308594 161.894531 139.714844 188.882812 139.714844 C 215.851562 139.714844 227.589844 187.308594 231.414062 207.941406 C 227.980469 209.507812 225.582031 212.957031 225.582031 216.976562 C 225.582031 222.460938 230.035156 226.910156 235.511719 226.910156 C 240.996094 226.910156 245.445312 222.460938 245.445312 216.976562 C 245.445312 211.859375 241.582031 207.65625 236.609375 207.109375 Z M 236.609375 207.109375 " fill-opacity="1" fill-rule="nonzero"/></g><path fill="#42b84a" d="M 1398.675781 309.078125 C 1350.621094 308.863281 1324.820312 331.296875 1322.613281 377.742188 C 1322.585938 378.328125 1321.730469 378.359375 1321.652344 377.78125 C 1319.507812 362.605469 1319.921875 348.777344 1323.773438 336.753906 C 1336.484375 297.078125 1384.976562 291.871094 1419.378906 304.429688 C 1421.09375 305.054688 1421.441406 307.265625 1420.015625 308.40625 C 1393.179688 329.867188 1396.832031 388.433594 1331.511719 363.050781 C 1341.714844 331.34375 1362.628906 311.699219 1398.675781 309.078125 " fill-opacity="1" fill-rule="evenodd"/></svg>