<svg xmlns="http://www.w3.org/2000/svg" xmlns:xlink="http://www.w3.org/1999/xlink" width="2000" zoomAndPan="magnify" viewBox="0 0 1500 1499.999933" height="2000" preserveAspectRatio="xMidYMid meet" version="1.0"><path fill="#3871c1" d="M 389.625 1039.660156 C 389.585938 1039.660156 389.585938 1039.660156 389.625 1039.660156 C 345.558594 1039.660156 304.128906 1037.214844 266.152344 1032.449219 L 266.152344 1499.191406 L 1245.386719 1499.191406 L 1245.386719 808.011719 C 1127.839844 879.527344 972.511719 941.464844 802.921875 984.09375 C 658.214844 1020.429688 515.265625 1039.660156 389.625 1039.660156 Z M 389.625 1039.660156 " fill-opacity="1" fill-rule="nonzero"/><path fill="#f68712" d="M 1316.179688 548.199219 C 1313.777344 538.664062 1309.570312 529.730469 1303.71875 521.4375 C 1298.589844 553.648438 1275.753906 588.144531 1238.734375 622.636719 L 1208.808594 285.222656 L 997.753906 285.222656 C 999.234375 291.910156 1000.597656 298.441406 1001.839844 304.730469 C 1028.160156 316.953125 1045.988281 343.554688 1045.988281 374.082031 C 1045.988281 416.269531 1011.695312 450.5625 969.507812 450.5625 C 927.320312 450.5625 893.027344 416.230469 893.027344 374.082031 C 893.027344 353.167969 901.640625 333.539062 916.144531 319.355469 C 913.820312 307.976562 911.253906 296.558594 908.492188 285.222656 L 608.175781 285.222656 C 605.410156 296.558594 602.886719 307.9375 600.523438 319.316406 C 615.023438 333.496094 623.636719 353.128906 623.636719 374.042969 C 623.636719 416.230469 589.304688 450.523438 547.15625 450.523438 C 504.96875 450.523438 470.675781 416.1875 470.675781 374.042969 C 470.675781 343.554688 488.503906 316.910156 514.824219 304.691406 C 516.066406 298.402344 517.46875 291.871094 518.914062 285.179688 L 296.117188 285.179688 L 265.710938 867.785156 C 214.429688 854.445312 176.726562 833.773438 157.335938 806.289062 C 155.535156 817.546875 155.894531 828.484375 158.539062 839.0625 C 187.066406 952.523438 469.3125 979.363281 788.980469 899.035156 C 1108.691406 818.75 1344.703125 661.660156 1316.179688 548.199219 Z M 1316.179688 548.199219 " fill-opacity="1" fill-rule="nonzero"/><path fill="#ff3131" d="M 974.515625 329.410156 C 956.6875 230.976562 899.757812 0.609375 758.414062 0.609375 C 617.027344 0.609375 560.136719 230.976562 542.269531 329.410156 C 519.753906 331.894531 502.246094 350.925781 502.246094 374.082031 C 502.246094 398.921875 522.398438 419.074219 547.195312 419.074219 C 572.035156 419.074219 592.1875 398.921875 592.1875 374.082031 C 592.1875 355.851562 581.332031 340.230469 565.785156 333.136719 C 583.09375 239.75 636.21875 24.246094 758.414062 24.246094 C 880.527344 24.246094 933.691406 239.75 951 333.175781 C 935.453125 340.269531 924.597656 355.894531 924.597656 374.082031 C 924.597656 398.921875 944.75 419.074219 969.546875 419.074219 C 994.386719 419.074219 1014.539062 398.921875 1014.539062 374.082031 C 1014.539062 350.925781 997.03125 331.894531 974.515625 329.410156 Z M 974.515625 329.410156 " fill-opacity="1" fill-rule="nonzero"/></svg>